<?xml version="1.0" encoding="UTF-8" standalone="no"?>
<!-- Created with Inkscape (http://www.inkscape.org/) -->

<svg
   xmlns:dc="http://purl.org/dc/elements/1.1/"
   xmlns:cc="http://creativecommons.org/ns#"
   xmlns:rdf="http://www.w3.org/1999/02/22-rdf-syntax-ns#"
   xmlns:svg="http://www.w3.org/2000/svg"
   xmlns="http://www.w3.org/2000/svg"
   xmlns:sodipodi="http://sodipodi.sourceforge.net/DTD/sodipodi-0.dtd"
   xmlns:inkscape="http://www.inkscape.org/namespaces/inkscape"
   width="210mm"
   height="297mm"
   id="svg2"
   version="1.1"
   inkscape:version="0.48.3.1 r9886"
   sodipodi:docname="cygnus.svg">
  <defs
     id="defs4" />
  <sodipodi:namedview
     id="base"
     pagecolor="#ffffff"
     bordercolor="#666666"
     borderopacity="1.0"
     inkscape:pageopacity="0.0"
     inkscape:pageshadow="2"
     inkscape:zoom="0.98994949"
     inkscape:cx="369.763"
     inkscape:cy="431.57476"
     inkscape:document-units="px"
     inkscape:current-layer="layer1"
     showgrid="false"
     inkscape:window-width="1366"
     inkscape:window-height="691"
     inkscape:window-x="0"
     inkscape:window-y="24"
     inkscape:window-maximized="1" />
  <metadata
     id="metadata7">
    <rdf:RDF>
      <cc:Work
         rdf:about="">
        <dc:format>image/svg+xml</dc:format>
        <dc:type
           rdf:resource="http://purl.org/dc/dcmitype/StillImage" />
        <dc:title></dc:title>
      </cc:Work>
    </rdf:RDF>
  </metadata>
  <g
     inkscape:label="Capa 1"
     inkscape:groupmode="layer"
     id="layer1">
    <path
       style="fill:#000000"
       id="path3005"
       d="m 227.84895,655.42545 c 3.01077,0.6698 5.98151,1.5092 9.03232,2.00942 6.14033,1.00677 12.33239,1.74011 18.51492,2.50726 9.09311,1.1283 18.17987,2.32621 27.30963,3.17878 26.01289,2.42918 47.60488,3.6136 73.94011,3.70259 12.91874,0.0437 25.83059,-0.54557 38.74589,-0.81834 19.94747,-1.25333 41.62761,-1.96117 61.4381,-5.4483 6.60331,-1.16235 13.01337,-3.10704 19.43104,-4.93121 0.8303,-0.23601 -2.28047,0.87876 -2.60593,0.14884 -9.30531,-20.86959 16.49111,12.67387 -8.49299,-16.20097 -5.15594,-3.64043 -9.93201,-7.7698 -15.46782,-10.92129 -23.66792,-13.47393 -51.09602,-20.80833 -78.72819,-23.61664 -25.35303,-2.57668 -42.58629,-1.2493 -68.05565,-0.5314 -46.54702,2.48738 -92.85179,7.71942 -138.77467,14.93467 -7.97413,1.10818 -15.87247,2.60091 -23.69364,4.38079 -3.04021,0.69187 -6.04589,1.35756 -8.94054,2.4438 -6.55044,3.39048 8.44948,-4.35184 12.66382,-6.54417 0.11073,-0.0576 -0.22799,0.10952 -0.3521,0.1369 -0.31662,0.0698 -0.44573,-0.34127 -0.54831,-0.51908 0.0393,0.0873 0.0785,0.17468 0.11787,0.26203 0,0 -14.86596,7.47696 -14.86596,7.47696 l 0,0 c -0.008,-0.0255 -0.0164,-0.0512 -0.0248,-0.0767 -0.2545,-0.4358 -0.79576,-1.3429 -0.0731,-1.73274 14.09405,-7.60321 9.75676,-6.04096 16.22018,-8.27703 10.12171,-2.76622 20.7358,-3.90605 31.13053,-5.45306 44.9013,-5.97277 90.10334,-10.00914 135.40299,-12.49661 25.11905,-0.72778 43.69016,-2.05624 68.74361,0.32991 28.27766,2.69322 56.16166,10.02668 80.86132,22.93446 5.88236,3.07406 11.12091,7.06022 16.68136,10.59033 1.10065,1.11961 16.01184,12.19072 9.95068,17.99132 -10.45381,10.00439 -25.71245,13.9153 -39.98648,16.00824 -18.59859,2.72701 -41.19761,3.26298 -59.65824,4.14451 -12.88244,0.23492 -25.76228,0.70371 -38.64735,0.70477 -27.63886,0.002 -48.45564,-0.82538 -75.7977,-2.59472 -9.58382,-0.62018 -19.142,-1.53019 -28.71344,-2.29065 -6.71188,-0.53328 -13.43653,-0.94668 -20.13653,-1.59054 -3.38343,-0.32513 -6.73551,-0.87695 -10.10326,-1.31544 0,0 13.48226,-8.52668 13.48226,-8.52668 z"
       inkscape:connector-curvature="0" />
    <path
       style="fill:#000000"
       id="path3011"
       d="m 402.1929,618.43948 c -6.35571,-0.035 -12.6012,-1.25238 -18.78868,-2.42824 -7.99138,-1.51866 -14.13173,-2.70264 -21.90784,-5.011 -3.24653,-0.96374 -6.39292,-2.18409 -9.58937,-3.27614 -6.72733,-2.90606 -13.60416,-6.16821 -17.14053,-12.47501 -3.26489,-5.82261 -2.85684,-12.67724 -2.87526,-18.96676 1.12509,-12.74913 5.55177,-25.41808 14.66701,-35.41906 2.18111,-2.39304 4.72494,-4.49573 7.08742,-6.7436 19.03617,-14.3677 41.91583,-23.79987 65.8384,-29.18958 2.85201,-0.64256 5.74587,-1.12231 8.61881,-1.68346 5.38489,-0.64567 15.54353,-3.20694 20.69298,-0.24438 1.04014,0.85636 1.35561,1.86739 1.19035,3.08554 -0.0469,0.27339 -0.11197,0.54363 -0.15612,0.81718 0,0 -15.48893,6.41641 -15.48893,6.41641 l 0,0 c 0.16854,-0.15763 0.2632,-0.35857 0.3469,-0.56618 0.22519,-0.56686 0.61058,-1.00502 -0.0204,-1.45227 -5.1269,-2.23787 -13.60832,-0.18751 -18.79439,0.33631 -10.05556,1.8867 -19.72678,4.07468 -29.32515,7.48932 -3.90843,1.39044 -7.6275,3.1915 -11.5325,4.5898 -0.61458,0.22007 2.14133,-1.40211 1.61626,-1.039 -3.01424,2.08452 -6.05638,4.13585 -9.08457,6.20377 -2.31433,2.15499 -4.7976,4.17149 -6.94299,6.46497 -9.07792,9.70454 -13.76585,21.99837 -14.84281,34.5381 0.0295,5.94495 -0.36348,12.56382 2.61979,18.10395 3.23929,6.01558 9.73055,9.25807 16.02532,12.13916 3.10687,1.09705 6.15387,2.34431 9.32058,3.29115 7.87268,2.35391 13.95523,3.44185 22.12772,4.69625 6.58827,1.01124 13.24082,1.84283 19.93729,1.38842 0,0 -13.59936,8.93435 -13.59936,8.93435 z"
       inkscape:connector-curvature="0" />
    <path
       style="fill:#000000"
       id="path3017"
       d="m 415.54153,504.67371 c -4.77378,1.18133 -9.23879,3.2041 -13.58473,5.3053 -1.90423,0.92068 -7.57716,3.74408 -5.63894,2.88333 8.51568,-3.78178 12.02445,-6.65369 4.76781,-1.41859 -3.30313,2.8803 -7.11787,6.97448 -4.9049,11.4756 1.33993,2.72538 3.33316,3.2402 6.03652,4.7392 10.51738,4.03384 21.8818,2.88167 32.93932,1.944 5.50734,-0.46702 17.47537,-1.70305 22.99874,-2.26306 10.97382,-1.14328 21.93619,-2.37575 32.88436,-3.70468 0,0 -13.17912,8.86439 -13.17912,8.86439 l 0,0 c -10.53496,0.85448 -21.06039,1.80306 -31.57738,2.82256 -0.96855,0.096 -22.31619,2.21567 -23.09817,2.28508 -11.5918,1.02906 -23.4913,2.24035 -34.49844,-2.06776 -3.30998,-1.92124 -5.19343,-2.35874 -6.91276,-5.64863 -2.59783,-4.97085 0.62799,-9.59927 4.41958,-13.02548 9.23846,-7.00126 3.35489,-2.86417 22.39964,-12.96422 6.40395,-3.39621 13.1199,-6.55942 20.31521,-8.31727 0,0 -13.36674,9.09023 -13.36674,9.09023 z"
       inkscape:connector-curvature="0" />
    <path
       style="fill:#000000"
       id="path3019"
       d="m 290.16975,649.61197 c 11.18372,0.18949 22.36444,0.42815 33.54586,0.73029 9.38323,0.204 18.78638,-0.35253 28.07182,-1.58287 5.96612,-0.79052 3.98079,-0.0304 7.68618,-2.16438 -4.72245,2.32794 -9.18445,5.15285 -14.16735,6.98382 -0.68114,0.25029 -1.20097,-0.77068 -1.83801,-1.10262 -1.21021,-0.63058 -2.42332,-1.26544 -3.69793,-1.78193 -6.5542,-2.6558 -13.42756,-3.75028 -20.43771,-4.93869 -11.96154,-1.45937 -23.86958,-3.57828 -35.93265,-4.2978 -8.49658,-0.5068 -11.18855,-0.23128 -19.71693,0.0279 -8.43121,0.32934 -16.81977,1.15885 -25.21946,1.84416 -3.25513,0.26559 -6.53469,0.29931 -9.77669,0.6738 -1.76543,0.20393 -3.5069,0.55155 -5.26036,0.82733 -9.82117,1.99701 -19.18173,5.43034 -28.55797,8.67058 0,0 12.27077,-8.69056 12.27077,-8.69056 l 0,0 c 9.54809,-3.2224 19.06795,-6.65935 29.0448,-8.66265 1.86709,-0.28223 3.72027,-0.65422 5.60127,-0.8467 3.0741,-0.31457 6.1839,-0.21041 9.27087,-0.39527 8.26796,-0.49512 16.52328,-1.18042 24.80579,-1.47323 8.72343,-0.21522 11.22615,-0.46289 19.92278,0.0598 12.14038,0.72975 24.11669,2.85206 36.16143,4.28717 8.55153,1.38163 17.87861,2.5241 25.46052,6.71179 0.96684,0.53402 3.4033,1.12955 2.66543,1.90693 -3.72496,3.92437 -9.02057,6.3601 -13.53085,9.54015 -3.66854,1.13402 -1.82396,0.70755 -7.36117,1.31032 -9.37518,1.02057 -18.82484,1.67877 -28.27353,1.45494 -11.42113,-0.31138 -22.84724,-0.65535 -34.27141,-0.20063 0,0 13.5345,-8.89173 13.5345,-8.89173 z"
       inkscape:connector-curvature="0" />
  </g>
</svg>
