<?xml version="1.0" encoding="UTF-8" standalone="no"?>
<!-- Created with Inkscape (http://www.inkscape.org/) -->

<svg
   xmlns:dc="http://purl.org/dc/elements/1.1/"
   xmlns:cc="http://creativecommons.org/ns#"
   xmlns:rdf="http://www.w3.org/1999/02/22-rdf-syntax-ns#"
   xmlns:svg="http://www.w3.org/2000/svg"
   xmlns="http://www.w3.org/2000/svg"
   xmlns:sodipodi="http://sodipodi.sourceforge.net/DTD/sodipodi-0.dtd"
   xmlns:inkscape="http://www.inkscape.org/namespaces/inkscape"
   width="210mm"
   height="297mm"
   id="svg2"
   version="1.1"
   inkscape:version="0.48.3.1 r9886"
   sodipodi:docname="Nuevo documento 1">
  <defs
     id="defs4" />
  <sodipodi:namedview
     id="base"
     pagecolor="#ffffff"
     bordercolor="#666666"
     borderopacity="1.0"
     inkscape:pageopacity="0.0"
     inkscape:pageshadow="2"
     inkscape:zoom="0.98994949"
     inkscape:cx="369.763"
     inkscape:cy="431.57476"
     inkscape:document-units="px"
     inkscape:current-layer="layer1"
     showgrid="false"
     inkscape:window-width="1366"
     inkscape:window-height="691"
     inkscape:window-x="0"
     inkscape:window-y="24"
     inkscape:window-maximized="1" />
  <metadata
     id="metadata7">
    <rdf:RDF>
      <cc:Work
         rdf:about="">
        <dc:format>image/svg+xml</dc:format>
        <dc:type
           rdf:resource="http://purl.org/dc/dcmitype/StillImage" />
        <dc:title></dc:title>
      </cc:Work>
    </rdf:RDF>
  </metadata>
  <g
     inkscape:label="Capa 1"
     inkscape:groupmode="layer"
     id="layer1">
    <path
       style="fill:#000000"
       id="path3005"
       d="m 216.74045,652.67571 c 2.67562,0.65828 5.31567,1.48324 8.02687,1.97485 5.45681,0.98945 10.95959,1.71018 16.4539,2.46413 8.08089,1.10889 16.15614,2.28619 24.2696,3.1241 23.11721,2.38739 42.30565,3.55143 65.70932,3.63889 11.48066,0.0429 22.95521,-0.53618 34.43281,-0.80426 17.72698,-1.23177 36.99375,-1.92743 54.599,-5.35458 5.86825,-1.14235 11.56476,-3.05359 17.26803,-4.84637 0.73788,-0.23195 -2.02661,0.86364 -2.31584,0.14627 -8.26947,-20.51057 14.65537,12.45585 -7.54758,-15.92226 -4.58199,-3.57781 -8.82641,-7.63614 -13.74599,-10.73341 -21.03327,-13.24214 -45.40816,-20.45037 -69.9644,-23.21037 -22.53081,-2.53235 -37.84571,-1.22781 -60.4799,-0.52226 -41.36555,2.44459 -82.51581,7.58662 -123.32669,14.67775 -7.08648,1.08912 -14.1056,2.55617 -21.05614,4.30543 -2.70178,0.67997 -5.37288,1.33421 -7.9453,2.40176 -5.82127,3.33215 7.50891,-4.27698 11.25412,-6.43159 0.0984,-0.0566 -0.20261,0.10763 -0.31291,0.13454 -0.28137,0.0686 -0.39611,-0.3354 -0.48727,-0.51015 0.0349,0.0858 0.0698,0.17168 0.10475,0.25752 0,0 -13.21113,7.34834 -13.21113,7.34834 l 0,0 c -0.007,-0.0251 -0.0146,-0.0503 -0.022,-0.0754 -0.22617,-0.4283 -0.70718,-1.3198 -0.065,-1.70293 12.52514,-7.47242 8.67067,-5.93704 14.4146,-8.13464 8.99499,-2.71864 18.42755,-3.83886 27.66517,-5.35926 39.90302,-5.87002 80.07331,-9.83695 120.33034,-12.28163 22.32287,-0.71526 38.8267,-2.02086 61.09128,0.32424 25.12987,2.64689 49.90991,9.85419 71.86008,22.53992 5.22755,3.02118 9.88296,6.93876 14.82444,10.40814 0.97813,1.10035 14.22945,11.98101 8.843,17.68182 -9.29012,9.83229 -22.85022,13.67592 -35.53531,15.73285 -16.52825,2.6801 -36.61161,3.20685 -53.01726,4.07322 -11.44841,0.23088 -22.8945,0.6916 -34.34524,0.69264 -24.56219,0.002 -43.06171,-0.81118 -67.36013,-2.55008 -8.51698,-0.60951 -17.01117,-1.50387 -25.51715,-2.25125 -5.96473,-0.5241 -11.94081,-0.93039 -17.89499,-1.56317 -3.0068,-0.31954 -5.98573,-0.86187 -8.9786,-1.29281 0,0 11.98146,-8.38 11.98146,-8.38 z"
       inkscape:connector-curvature="0" />
    <path
       style="fill:#000000"
       id="path3011"
       d="m 371.67696,616.326 c -5.64821,-0.0344 -11.19847,-1.23083 -16.69718,-2.38646 -7.10181,-1.49254 -12.55863,-2.65615 -19.46913,-4.9248 -2.88513,-0.94716 -5.68128,-2.14652 -8.52191,-3.21978 -5.97846,-2.85607 -12.08978,-6.0621 -15.2325,-12.2604 -2.90145,-5.72245 -2.53882,-12.45916 -2.55519,-18.64048 0.99985,-12.52981 4.93376,-24.98082 13.03432,-34.80975 1.93832,-2.35188 4.19898,-4.41839 6.29847,-6.62759 16.91712,-14.12054 37.24989,-23.39045 58.50947,-28.68744 2.53453,-0.6315 5.10626,-1.103 7.65939,-1.6545 4.78546,-0.63456 13.81327,-3.15177 18.3895,-0.24017 0.92435,0.84162 1.20471,1.83526 1.05784,3.03246 -0.0417,0.26868 -0.0995,0.53427 -0.13874,0.80312 0,0 -13.76475,6.30603 -13.76475,6.30603 l 0,0 c 0.14978,-0.15492 0.2339,-0.3524 0.30829,-0.55644 0.20012,-0.55711 0.54261,-0.98773 -0.0181,-1.42729 -4.55619,-2.19937 -12.09348,-0.18428 -16.70225,0.33052 -8.93621,1.85425 -17.53086,4.00459 -26.06076,7.36049 -3.47336,1.36652 -6.77843,3.13659 -10.24874,4.51084 -0.54617,0.21628 1.90296,-1.37799 1.43634,-1.02113 -2.6787,2.04866 -5.3822,4.0647 -8.0733,6.09705 -2.05671,2.11792 -4.26355,4.09973 -6.17012,6.35375 -8.06739,9.5376 -12.23348,21.61994 -13.19055,33.94395 0.0262,5.84268 -0.32302,12.34769 2.32816,17.79251 2.8787,5.91209 8.64738,9.0988 14.24143,11.93033 2.76102,1.07818 5.46884,2.30398 8.28304,3.23453 6.99632,2.31342 12.40178,3.38264 19.66453,4.61547 5.85488,0.99384 11.76689,1.81112 17.71793,1.36453 0,0 -12.08552,8.78065 -12.08552,8.78065 z"
       inkscape:connector-curvature="0" />
    <path
       style="fill:#000000"
       id="path3017"
       d="m 383.53966,504.51733 c -4.24238,1.16101 -8.21036,3.14898 -12.07252,5.21404 -1.69226,0.90484 -6.73369,3.67967 -5.01123,2.83372 7.56774,-3.71672 10.68592,-6.53922 4.23707,-1.39418 -2.93543,2.83075 -6.32553,6.8545 -4.3589,11.27818 1.19077,2.6785 2.96212,3.18446 5.36455,4.65768 9.34662,3.96444 19.44599,2.83209 29.27262,1.91055 4.89428,-0.45898 15.53006,-1.67375 20.43859,-2.22412 9.75224,-1.12362 19.49432,-2.33488 29.22377,-3.64095 0,0 -11.71206,8.71189 -11.71206,8.71189 l 0,0 c -9.36224,0.83978 -18.71601,1.77205 -28.06228,2.77401 -0.86074,0.0944 -19.83202,2.17755 -20.52695,2.24577 -10.30144,1.01135 -20.87632,2.20181 -30.65818,-2.03219 -2.94152,-1.88819 -4.61531,-2.31816 -6.14325,-5.55146 -2.30865,-4.88534 0.55808,-9.43413 3.9276,-12.8014 8.21006,-6.88082 2.98144,-2.8149 19.90618,-12.7412 5.69108,-3.33779 11.65943,-6.44658 18.05378,-8.17419 0,0 -11.87879,8.93385 -11.87879,8.93385 z"
       inkscape:connector-curvature="0" />
    <path
       style="fill:#000000"
       id="path3019"
       d="m 272.12389,646.96224 c 9.93878,0.18623 19.8749,0.42078 29.81163,0.71772 8.33872,0.2005 16.69514,-0.34646 24.94695,-1.55564 5.30199,-0.77692 3.53766,-0.0299 6.83058,-2.12714 -4.19676,2.28789 -8.16206,5.0642 -12.59028,6.86368 -0.60532,0.24598 -1.06728,-0.75743 -1.63341,-1.08366 -1.07549,-0.61973 -2.15356,-1.24367 -3.28629,-1.75127 -5.8246,-2.61011 -11.93284,-3.68577 -18.16264,-4.85373 -10.63002,-1.43427 -21.21249,-3.51672 -31.93274,-4.22387 -7.55077,-0.49808 -9.94307,-0.2273 -17.5221,0.0274 -7.49267,0.32368 -14.94744,1.13892 -22.41211,1.81244 -2.89277,0.26102 -5.80726,0.29416 -8.68837,0.66221 -1.56891,0.20042 -3.11653,0.54206 -4.6748,0.81309 -8.7279,1.96266 -17.04647,5.33693 -25.37898,8.52143 0,0 10.90483,-8.54106 10.90483,-8.54106 l 0,0 c 8.48522,-3.16697 16.94536,-6.54479 25.81162,-8.51363 1.65925,-0.27737 3.30614,-0.64296 4.97775,-0.83213 2.7319,-0.30916 5.49553,-0.20679 8.23886,-0.38847 7.3476,-0.48661 14.68396,-1.16012 22.04449,-1.44789 7.75236,-0.21152 9.97649,-0.45493 17.70503,0.0588 10.78895,0.7172 21.4321,2.803 32.13605,4.21342 7.5996,1.35786 15.88842,2.48068 22.62633,6.59633 0.85922,0.52483 3.02446,1.11012 2.36873,1.87412 -3.31031,3.85686 -8.01643,6.25069 -12.02464,9.37603 -3.26017,1.11452 -1.62092,0.69538 -6.54175,1.28778 -8.33156,1.00302 -16.72931,1.64989 -25.1262,1.42991 -10.14977,-0.30602 -20.30396,-0.64407 -30.45642,-0.19717 0,0 12.02788,-8.73877 12.02788,-8.73877 z"
       inkscape:connector-curvature="0" />
  </g>
</svg>
